
<svg width="724px" height="245px" viewBox="19505 4836 724 245" version="1.1" xmlns="http://www.w3.org/2000/svg" xmlns:xlink="http://www.w3.org/1999/xlink">
    <!-- Generator: Sketch 41.2 (35397) - http://www.bohemiancoding.com/sketch -->
    <desc>Created with Sketch.</desc>
    <defs></defs>
    <g id="Group-2" stroke="none" stroke-width="1" fill="none" fill-rule="evenodd" transform="translate(19505.000000, 4914.000000)">
        <path d="M660.693011,155.913383 C657.733258,155.04204 655.111865,153.651805 652.828754,151.742636 C650.545642,149.833466 648.721364,147.626441 647.355864,145.121494 C645.990365,142.616546 645.123847,139.887426 644.756283,136.934051 C644.388719,133.980676 644.640605,131.024157 645.511947,128.064403 L653.705876,100.231478 C654.577219,97.271725 655.967454,94.6503319 657.876623,92.3672203 C659.785793,90.0841088 661.992818,88.2598306 664.497765,86.8943312 C667.002712,85.5288318 669.731833,84.6623133 672.685208,84.2947496 C675.638582,83.9271858 678.595102,84.1790714 681.554856,85.0504138 L689.5803,87.4130805 L703.203336,41.138708 C703.67252,39.5449947 704.703953,38.9827387 706.297667,39.4519231 L721.494785,43.9259089 C723.088499,44.3950933 723.650755,45.4265267 723.18157,47.02024 L689.400464,161.767023 C688.931279,163.360737 687.899846,163.922993 686.306133,163.453808 L660.693011,155.913383 Z M665.741529,133.092165 C665.406397,134.230531 665.519962,135.315423 666.082227,136.346872 C666.644491,137.37832 667.494794,138.0616 668.633161,138.396732 L674.097293,140.005356 L684.201463,105.683774 L678.737331,104.07515 C677.598964,103.740018 676.514073,103.853583 675.482624,104.415847 C674.451175,104.978111 673.767895,105.828414 673.432763,106.966781 L665.741529,133.092165 Z M641.632207,27.6060356 C641.98665,25.9829441 642.975403,25.3486297 644.598494,25.7030731 L660.075753,29.082928 C661.698845,29.4373715 662.333159,30.4261241 661.978716,32.0492156 L636.458913,148.911216 C636.104469,150.534307 635.115717,151.168622 633.492625,150.814178 L618.015366,147.434323 C616.392275,147.07988 615.75796,146.091127 616.112404,144.468036 L641.632207,27.6060356 Z M576.522649,33.8028354 C574.888431,33.5038569 574.220821,32.5372732 574.5198,30.9030554 L577.210593,16.1951686 C577.509572,14.5609508 578.476156,13.8933412 580.110373,14.1923197 L626.510254,22.6811329 C627.210633,22.8092666 627.722381,23.1441604 628.045513,23.6858244 C628.368645,24.2274885 628.349415,24.8271454 627.987821,25.4848132 L585.262681,121.536083 L607.674699,125.63634 C609.308917,125.935319 609.976526,126.901903 609.677548,128.536121 L606.986754,143.244007 C606.687776,144.878225 605.721192,145.545835 604.086974,145.246856 L558.037281,136.822109 C557.336902,136.693976 556.830493,136.3299 556.518039,135.729871 C556.205584,135.129842 556.219476,134.559367 556.559714,134.018429 L599.284854,37.9671589 L576.522649,33.8028354 Z M515.000393,26.985261 C513.353202,26.7688876 512.637803,25.8371193 512.854177,24.1899282 L514.801527,9.36528217 C515.017901,7.71809104 515.949669,7.00269289 517.59686,7.21906627 L564.365089,13.3624938 C565.071028,13.4552253 565.598978,13.763946 565.948955,14.2886654 C566.298931,14.8133848 566.309897,15.4132498 565.981853,16.0882784 L528.143698,114.167625 L550.733634,117.135016 C552.380825,117.351389 553.096224,118.283158 552.87985,119.930349 L550.9325,134.754995 C550.716126,136.402186 549.784358,137.117584 548.137167,136.901211 L501.721906,130.804149 C501.015967,130.711417 500.491881,130.373283 500.149632,129.789735 C499.807382,129.206187 499.792553,128.635736 500.105142,128.078364 L537.943297,29.9990179 L515.000393,26.985261 Z M450.050396,4.92529356 C449.957602,3.24965252 450.738752,2.48366905 452.393872,2.62732015 L468.531206,4.02791143 C470.068102,4.16130174 470.882936,5.06580385 470.97573,6.74144489 L470.732157,26.0165746 L481.726824,26.9708236 L484.807731,7.94195169 C485.187828,6.30735383 486.14631,5.55676131 487.683207,5.69015162 L503.820541,7.09074289 C505.47566,7.234394 506.113162,8.12350515 505.733065,9.75810302 L482.090237,127.771774 C481.71014,129.406372 480.692547,130.151834 479.037428,130.008183 L455.629427,127.976556 C453.974307,127.832905 453.100363,126.923273 453.007569,125.247632 L450.050396,4.92529356 Z M470.427019,46.0010376 L469.625361,94.350804 L471.044028,94.4739329 L478.584353,46.7090288 L470.427019,46.0010376 Z M373.211747,21.7675032 C371.551237,21.7149698 370.74726,20.8584605 370.799793,19.1979496 L371.300734,3.36387175 C371.353268,1.7033609 372.209777,0.899384239 373.870288,0.951917651 L412.476972,2.17331335 C414.137483,2.22584676 414.94146,3.08235605 414.888926,4.7428669 L411.10654,124.29905 C411.054006,125.959561 410.197497,126.763538 408.536986,126.711004 L369.930302,125.489609 C368.269791,125.437075 367.465814,124.580566 367.518348,122.920055 L368.019289,107.085977 C368.071822,105.425467 368.928332,104.62149 370.588842,104.674023 L390.870695,105.315678 L391.681206,79.696496 L374.068019,79.1392694 C372.407508,79.0867359 371.603531,78.2302267 371.656065,76.5697158 L372.157006,60.7356379 C372.209539,59.0751271 373.066048,58.2711504 374.726559,58.3236838 L392.339747,58.8809105 L393.4936,22.4091581 L373.211747,21.7675032 Z M304.252027,4.31369898 C303.892122,2.65319851 304.542828,1.82100873 306.204165,1.81710468 L322.75812,1.77820377 C324.419457,1.77429972 325.37073,2.60272493 325.611968,4.26350426 L332.45877,39.491512 L339.13993,4.23171427 C339.37336,2.5698195 340.320729,1.73693257 341.982066,1.73302852 L358.536021,1.69412761 C359.248022,1.69245445 359.81224,1.92846018 360.228689,2.4021519 C360.645139,2.87584361 360.735532,3.46896023 360.499871,4.18151955 L346.044875,64.2016536 L360.780962,123.797189 C361.01969,124.389966 360.932016,124.953835 360.517936,125.488812 C360.103857,126.023789 359.540825,126.29211 358.828823,126.293784 L342.274869,126.332684 C340.613532,126.336589 339.662259,125.508163 339.421021,123.847384 L332.574218,88.6193763 L325.893058,123.879174 C325.659628,125.541069 324.712259,126.373956 323.050922,126.37786 L306.496968,126.416761 C305.784966,126.418434 305.220679,126.152762 304.80409,125.619737 C304.387501,125.086711 304.297178,124.523261 304.533117,123.929369 L318.98895,64.2652336 L304.252027,4.31369898 Z M266.911553,129.26361 C263.829031,129.395643 260.898999,128.927274 258.12137,127.858487 C255.343741,126.789701 252.904051,125.290747 250.802226,123.361581 C248.700401,121.432415 246.998322,119.129835 245.695937,116.45377 C244.393553,113.777706 243.676355,110.898455 243.544321,107.815933 L242.302704,78.8285119 C242.170671,75.7459895 242.63904,72.8159579 243.707827,70.038329 C244.776614,67.2607002 246.275567,64.8210099 248.204733,62.7191848 C250.133899,60.6173598 252.436479,58.9152806 255.112544,57.6128962 C257.788609,56.3105118 260.667859,55.5933135 263.750381,55.46128 L272.108717,55.1032678 L270.044434,6.90945717 C269.973339,5.24963744 270.767689,4.38419306 272.427509,4.31309808 L288.254997,3.63515999 C289.914816,3.564065 290.780261,4.35841546 290.851356,6.01823519 L295.970169,125.524658 C296.041264,127.184478 295.246914,128.049923 293.587094,128.121018 L266.911553,129.26361 Z M264.313157,106.035526 C264.363939,107.221112 264.822052,108.211071 265.687509,109.005433 C266.552966,109.799796 267.578473,110.17158 268.764058,110.120798 L274.45484,109.877045 L272.923766,74.1318203 L267.232984,74.3755733 C266.047399,74.4263554 265.05744,74.8844683 264.263077,75.7499257 C263.468715,76.615383 263.09693,77.6408891 263.147713,78.8264746 L264.313157,106.035526 Z M172.928961,14.8648739 C172.436446,13.2387675 172.958862,12.3617772 174.496225,12.2338766 L190.638458,10.8909271 C191.34801,10.831896 192.047665,11.0118393 192.737441,11.4307624 C193.427218,11.8496854 193.919874,12.4040763 194.215422,13.0939515 L210.780319,55.4764988 L206.958078,9.5332199 L207.283043,11.292334 C207.421175,10.0900699 208.140653,9.43483586 209.441499,9.32661229 L225.228958,8.01317817 C226.88458,7.87543907 227.781247,8.63436911 227.918986,10.289991 L237.836151,129.494174 C237.97389,131.149796 237.21496,132.046463 235.559338,132.184202 L208.951262,134.397855 C205.876535,134.653656 202.930049,134.303412 200.111713,133.34711 C197.293378,132.390809 194.795421,130.991107 192.617769,129.147964 C190.440116,127.30482 188.64688,125.0725 187.238007,122.450934 C185.829135,119.829369 184.99681,116.981266 184.741009,113.906539 L182.335506,84.9924296 C181.971481,80.6168573 182.767797,76.5913498 184.724476,72.9157862 C186.681156,69.2402227 189.413756,66.3039184 192.92236,64.1067853 L172.928961,14.8648739 Z M212.743092,79.0689934 L207.066702,79.5412394 C205.884115,79.6396245 204.913365,80.1371498 204.154424,81.0338303 C203.395482,81.9305108 203.065209,82.970129 203.163594,84.1527161 L205.42152,111.292954 C205.519905,112.475541 206.017431,113.446291 206.914111,114.205232 C207.810792,114.964174 208.85041,115.294447 210.032997,115.196062 L215.709387,114.723816 L212.743092,79.0689934 Z M123.126813,41.2179853 C121.479416,41.4327814 120.548333,40.7164914 120.333537,39.0690939 L118.285313,23.3600601 C118.070516,21.7126625 118.786806,20.7815797 120.434204,20.5667836 L158.736005,15.572799 C160.383403,15.3580028 161.314486,16.0742928 161.529282,17.7216904 L176.994525,136.333721 C177.209321,137.981118 176.493031,138.912201 174.845633,139.126997 L136.543832,144.120982 C134.896434,144.335778 133.965351,143.619488 133.750555,141.97209 L131.702331,126.263057 C131.487535,124.615659 132.203825,123.684576 133.851222,123.46978 L153.972906,120.846212 L150.658926,95.4293485 L133.184832,97.7077101 C131.537434,97.9225062 130.606351,97.2062163 130.391555,95.5588187 L128.343331,79.8497849 C128.128535,78.2023874 128.844825,77.2713045 130.492223,77.0565084 L147.966316,74.7781468 L143.248497,38.5944173 L123.126813,41.2179853 Z M100.728887,152.753553 C97.6905356,153.290019 94.7243513,153.211239 91.8302454,152.517209 C88.9361395,151.823179 86.3204352,150.658257 83.983054,149.022409 C81.6456728,147.386562 79.6554303,145.327949 78.0122669,142.84651 C76.3691034,140.36507 75.2793047,137.605216 74.742838,134.566865 L73.5667439,127.905897 C73.2778772,126.269861 73.8517565,125.084025 75.2883989,124.348353 L90.4968688,117.32499 C91.9335112,116.589318 92.7962529,117.039493 93.0851195,118.675528 L95.0968596,130.06929 C95.3031929,131.237886 95.8875764,132.158963 96.8500274,132.832548 C97.8124785,133.506132 98.8779865,133.739754 100.046583,133.533421 L101.448892,133.285822 C102.617489,133.079489 103.538566,132.495105 104.21215,131.532654 C104.885735,130.570203 105.119357,129.504695 104.913023,128.336098 L102.096587,112.384832 C101.752761,111.120009 101.323031,110.051125 100.807386,109.178147 C100.29174,108.30517 99.4839572,107.483788 98.3840131,106.713977 L72.3881164,93.5901207 C70.2294949,92.2842185 68.7376806,90.8304816 67.9126287,89.2288663 C67.0875768,87.627251 66.3725019,85.795367 65.7673826,83.7331595 L60.444009,53.5835136 C59.9075423,50.545162 59.9863228,47.5789777 60.6803529,44.6848718 C61.374383,41.7907659 62.5393044,39.1750616 64.1751523,36.8376804 C65.8110001,34.5002992 67.8696128,32.5100567 70.351052,30.8668933 C72.8324912,29.2237298 75.5923452,28.1339311 78.6306968,27.5974644 L85.2916651,26.4213703 C88.3300167,25.8849036 91.296201,25.9636841 94.1903069,26.6577142 C97.0844128,27.3517443 99.7001171,28.5166657 102.037498,30.1525136 C104.37488,31.7883614 106.365122,33.846974 108.008285,36.3284133 C109.651449,38.8098525 110.741248,41.5697065 111.277714,44.6080581 L114.2489,61.4357675 C114.537766,63.071803 113.963887,64.2576389 112.527244,64.993311 L97.3187747,72.0166744 C95.8821322,72.7523464 95.0193906,72.3021714 94.7305239,70.666136 L90.9236928,49.1056334 C90.7173594,47.9370366 90.132976,47.0159598 89.1705249,46.3423754 C88.2080738,45.668791 87.1425659,45.435169 85.9739691,45.6415023 L84.57166,45.8891011 C83.4030632,46.0954344 82.4819865,46.6798179 81.8084021,47.642269 C81.1348177,48.60472 80.9011956,49.670228 81.107529,50.8388248 L85.1929087,73.9769251 C85.5780017,75.4754676 86.0489974,76.7780677 86.6059097,77.8847644 C87.1628221,78.9914612 88.0496669,79.9193844 89.2664706,80.6685618 L114.94274,94.0296069 C116.984502,95.3561423 118.529587,96.7703483 119.578041,98.2722671 C120.626496,99.7741859 121.387995,101.869 121.862562,104.556773 L125.576543,125.591409 C126.11301,128.629761 126.03423,131.595945 125.340199,134.490051 C124.646169,137.384157 123.481248,139.999861 121.8454,142.337243 C120.209552,144.674624 118.15094,146.664866 115.6695,148.30803 C113.188061,149.951193 110.428207,151.040992 107.389855,151.577459 L100.728887,152.753553 Z M47.3855073,165.809237 C44.3839908,166.523573 41.4183109,166.61948 38.4883787,166.096963 C35.5584465,165.574446 32.8787227,164.565471 30.449127,163.070006 C28.0195313,161.574542 25.9115942,159.636617 24.1252524,157.256174 C22.3389106,154.875731 21.0885906,152.184791 20.3742548,149.183275 L18.808219,142.60306 C18.4235766,140.986859 18.9266782,139.769307 20.3175386,138.950367 L35.0863463,131.044198 C36.4772067,130.225258 37.3649448,130.623883 37.7495871,132.240084 L40.4283327,143.495715 C40.7030772,144.650145 41.3406508,145.535236 42.3410726,146.151015 C43.3414943,146.766795 44.4189038,146.93731 45.5733332,146.662565 L46.9586416,146.332873 C48.113071,146.058129 48.9981622,145.420555 49.6139416,144.420133 C50.2297211,143.419712 50.400236,142.342302 50.1254915,141.187873 L46.3752476,125.42999 C45.9575857,124.187592 45.4656999,123.145848 44.8995755,122.304728 C44.3334511,121.463608 43.4787321,120.691186 42.3353929,119.987438 L15.6122439,108.416113 C13.3805145,107.239503 11.805737,105.876074 10.8878642,104.325787 C9.96999143,102.775499 9.14835436,100.98887 8.42292836,98.9658457 L1.33455541,69.1817153 C0.620219678,66.1801988 0.52431178,63.2145189 1.04682884,60.2845867 C1.56934589,57.3546545 2.57832147,54.6749308 4.07378583,52.2453351 C5.5692502,49.8157394 7.5071749,47.7078022 9.88761808,45.9214604 C12.2680613,44.1351186 14.9590008,42.8847986 17.9605173,42.1704629 L24.5407321,40.604427 C27.5422487,39.8900912 30.5079285,39.7941833 33.4378607,40.3167004 C36.3677929,40.8392175 39.0475167,41.848193 41.4771124,43.3436574 C43.9067081,44.8391218 46.0146452,46.7770465 47.8009871,49.1574897 C49.5873289,51.5379328 50.8376489,54.2288723 51.5519846,57.2303888 L55.5082858,73.8540895 C55.8929281,75.4702907 55.3898266,76.6878429 53.9989661,77.5067825 L39.2301585,85.4129515 C37.839298,86.2318912 36.9515599,85.8332664 36.5669176,84.2170652 L31.4979067,62.9179487 C31.2231622,61.7635192 30.5855886,60.8784281 29.5851669,60.2626486 C28.5847451,59.6468692 27.5073357,59.4763543 26.3529063,59.7510988 L24.9675979,60.0807905 C23.8131684,60.355535 22.9280773,60.9931086 22.3122978,61.9935304 C21.6965184,62.9939521 21.5260035,64.0713616 21.800748,65.225791 L27.2406621,88.0833795 C27.7132729,89.5566633 28.2601068,90.8292891 28.8811801,91.9012952 C29.5022535,92.9733013 30.4421671,93.847428 31.7009492,94.5237014 L58.1189826,106.350613 C60.2352691,107.554698 61.8608986,108.875529 62.9959201,110.313146 C64.1309415,111.750763 65.0143952,113.797135 65.6463076,116.452323 L70.591684,137.231948 C71.3060198,140.233465 71.4019277,143.199145 70.8794106,146.129077 C70.3568936,149.059009 69.347918,151.738733 67.8524536,154.168329 C66.3569892,156.597924 64.4190645,158.705862 62.0386214,160.492203 C59.6581782,162.278545 56.9672387,163.528865 53.9657222,164.243201 L47.3855073,165.809237 Z" id="PIZZA-EXPRESS" fill="#000000" transform="translate(362.028677, 83.688788) rotate(-180.000000) translate(-362.028677, -83.688788) "></path>
    </g>
    <path d="M19743.089,4908.392 C19744.461,4907.02 19745.735,4903.59 19745.833,4901.63 C19746.029,4897.906 19742.795,4896.044 19737.013,4896.044 C19735.053,4896.044 19729.565,4896.338 19723.489,4897.318 C19724.077,4893.692 19724.959,4890.066 19726.233,4886.44 C19726.821,4888.204 19727.997,4889.772 19730.447,4889.772 C19744.069,4889.772 19761.709,4865.272 19761.709,4852.728 C19761.709,4848.024 19757.985,4846.064 19755.437,4845.378 C19755.045,4842.732 19752.693,4840.968 19749.263,4840.968 C19734.955,4840.968 19715.355,4873.406 19714.571,4892.026 C19714.473,4895.064 19715.061,4897.22 19716.139,4898.69 C19713.787,4899.278 19711.631,4899.964 19709.671,4900.748 C19707.123,4902.316 19707.711,4909.078 19709.279,4909.764 C19719.373,4907.314 19733.387,4906.922 19743.089,4908.392 Z M19727.703,4882.324 C19733.681,4867.232 19744.265,4853.414 19752.889,4847.436 C19751.321,4861.254 19737.601,4879.972 19727.703,4882.324 Z M19774.547,4861.548 C19779.741,4861.548 19783.857,4857.628 19783.857,4855.668 C19783.857,4853.218 19782.877,4851.846 19781.897,4851.16 C19783.367,4850.964 19784.935,4850.964 19786.601,4851.356 C19786.797,4850.67 19785.915,4845.28 19778.859,4845.28 C19773.077,4845.28 19768.863,4850.082 19768.863,4853.708 C19768.863,4854.198 19768.961,4854.884 19769.157,4855.374 C19768.961,4856.746 19769.451,4861.548 19774.547,4861.548 Z M19772.881,4855.864 C19774.253,4854.296 19776.899,4852.532 19780.035,4851.552 C19779.055,4854.1 19776.213,4855.668 19772.881,4855.864 Z M19763.277,4908.686 C19771.411,4908.49 19787.875,4883.5 19794.245,4872.132 C19795.519,4869.78 19792.089,4868.016 19791.991,4868.016 C19786.307,4876.052 19774.351,4893.594 19761.709,4897.808 C19768.177,4881.54 19776.507,4871.348 19776.507,4869.29 C19776.507,4867.624 19771.803,4863.802 19768.667,4863.802 C19762.395,4871.642 19752.105,4891.34 19752.595,4896.24 C19752.889,4899.082 19754.653,4900.846 19756.809,4901.63 C19757.691,4904.962 19759.945,4908.784 19763.277,4908.686 Z M19808.161,4901.14 C19817.177,4901.14 19829.133,4883.206 19833.445,4873.014 C19834.523,4870.466 19832.269,4868.996 19831.289,4868.506 C19825.801,4877.914 19816.589,4887.42 19810.317,4892.32 C19813.453,4886.342 19815.511,4879.972 19815.511,4875.17 C19815.511,4870.858 19813.453,4867.624 19810.317,4866.154 C19809.827,4863.312 19807.181,4862.234 19804.339,4862.234 C19793.461,4862.234 19780.035,4879.678 19780.035,4893.594 C19780.035,4898.984 19782.289,4902.12 19786.013,4902.904 C19786.307,4905.942 19787.679,4908.686 19792.579,4908.686 C19796.695,4908.686 19801.203,4905.256 19805.123,4900.258 C19806.201,4900.846 19807.181,4901.14 19808.161,4901.14 Z M19803.163,4878.11 C19803.359,4872.524 19806.103,4868.016 19808.749,4866.84 C19808.749,4872.916 19806.985,4880.364 19803.849,4886.832 C19803.163,4883.5 19803.065,4879.972 19803.163,4878.11 Z M19796.793,4881.834 C19796.793,4886.832 19797.871,4890.85 19799.341,4893.888 C19796.401,4897.514 19792.677,4900.258 19788.561,4901.042 C19789.639,4890.948 19793.461,4882.52 19797.773,4876.542 C19797.185,4878.306 19796.793,4880.168 19796.793,4881.834 Z M19848.635,4908.196 C19853.339,4908.098 19867.059,4895.26 19867.255,4890.948 C19867.255,4888.89 19865.981,4887.126 19864.217,4885.656 L19863.727,4885.656 C19861.179,4889.87 19854.613,4895.358 19848.537,4897.906 C19852.849,4887.126 19858.631,4875.954 19863.335,4868.016 C19863.237,4866.252 19859.611,4862.724 19856.867,4862.724 C19852.849,4862.724 19842.853,4870.466 19833.641,4881.05 C19836.679,4876.15 19840.305,4870.466 19840.305,4868.114 C19840.305,4865.762 19838.149,4863.802 19832.857,4863.802 C19830.701,4868.506 19828.055,4873.112 19823.057,4884.382 C19820.901,4889.184 19817.373,4896.142 19817.373,4900.16 C19817.373,4903.884 19819.823,4908 19823.155,4908 C19831.583,4890.85 19840.403,4880.854 19847.851,4874.19 C19843.441,4882.03 19838.443,4892.222 19838.835,4896.534 C19839.031,4898.788 19840.305,4900.356 19841.873,4901.336 C19842.657,4904.57 19845.107,4908.294 19848.635,4908.196 Z M19909.003,4868.8 C19902.829,4867.428 19890.677,4867.722 19882.053,4869.486 C19878.427,4870.27 19879.505,4876.346 19881.171,4879.286 C19890.481,4877.914 19901.849,4877.326 19913.413,4877.228 C19913.511,4874.876 19913.119,4869.682 19909.003,4868.8 Z M19935.463,4910.45 C19951.339,4910.45 19969.371,4876.836 19969.371,4857.726 C19969.371,4852.63 19967.901,4846.652 19963.393,4845.378 C19962.413,4841.262 19959.669,4839.596 19955.455,4839.596 C19952.123,4839.596 19947.909,4842.34 19944.185,4846.946 C19929.289,4852.042 19918.607,4877.032 19918.607,4890.654 C19918.607,4896.926 19921.939,4901.434 19926.839,4903.296 C19927.035,4907.118 19929.191,4910.45 19935.463,4910.45 Z M19928.995,4895.26 C19928.995,4888.008 19931.837,4879.874 19935.855,4872.72 C19937.031,4874.582 19939.971,4874.68 19940.559,4874.68 C19946.733,4862.724 19954.671,4851.846 19961.433,4849.69 C19959.571,4868.016 19946.733,4897.71 19930.171,4901.63 C19929.485,4900.16 19928.995,4898.102 19928.995,4895.26 Z M19987.403,4863.018 C19990.147,4863.998 19996.125,4854.59 19999.359,4845.476 C20000.731,4841.36 20000.045,4838.42 19996.811,4837.244 C19993.577,4836.068 19991.225,4837.44 19989.559,4841.556 C19986.031,4850.572 19984.561,4861.94 19987.403,4863.018 Z M20001.319,4908.686 C20008.571,4908.686 20015.333,4901.336 20016.509,4892.712 C20016.607,4892.124 20016.607,4891.438 20016.607,4890.752 C20016.607,4884.284 20013.177,4875.758 20011.805,4872.72 C20013.275,4870.466 20016.901,4867.722 20018.665,4864.978 C20017.685,4860.862 20014.843,4858.02 20012.687,4858.02 C20009.453,4858.02 20001.711,4865.664 20001.711,4869.192 C20001.711,4869.682 20001.809,4870.074 20001.907,4870.564 C19996.713,4877.816 19992.009,4884.186 19987.893,4889.282 C19986.423,4891.144 19987.599,4894.28 19990.245,4894.28 C19992.695,4894.28 19999.261,4883.99 20003.671,4876.15 C20004.847,4879.678 20006.121,4883.794 20006.121,4888.008 C20006.121,4894.182 20001.711,4898.102 19997.105,4898.102 C19994.165,4898.102 19992.205,4896.632 19990.441,4894.28 C19990.049,4895.358 19989.951,4896.534 19989.951,4897.71 C19989.951,4903.1 19993.675,4908.686 20001.319,4908.686 Z" id="Lion-O's" stroke="none" fill="#000000" fill-rule="evenodd" opacity="0.613734149"></path>
</svg>