
<svg width="64px" height="64px" viewBox="0 0 64 64" version="1.1" xmlns="http://www.w3.org/2000/svg" xmlns:xlink="http://www.w3.org/1999/xlink">
    <!-- Generator: Sketch 41.2 (35397) - http://www.bohemiancoding.com/sketch -->
    <desc>Created with Sketch.</desc>
    <defs></defs>
    <path d="M45,49 C44.8,49 44.7,49 44.6,48.9 C44.1,48.7 43.9,48.1 44.2,47.6 L45.2,45.6 C45.4,45.1 46,44.9 46.5,45.2 C47,45.4 47.2,46 46.9,46.5 L45.9,48.5 C45.7,48.8 45.4,49 45,49 Z M64,52 C64,55.9 60.9,59 57,59 L48,59 C47.4,59 47,58.6 47,58 C47,57.4 47.4,57 48,57 L57,57 C59.8,57 62,54.8 62,52 C62,49.2 59.8,47 57,47 C56.4,47 56,46.6 56,46 C56,45.4 56.4,45 57,45 C58.5,45 59.8,45.5 60.9,46.2 C57,34.3 42.4,20 30,20 C27.6,20 25.5,21.7 25.1,24 C36.7,25 55,40.9 55,53 C55,53.6 54.6,54 54,54 L45,54 L45,58.5 C45,60.4 43.4,62 41.5,62 C39.7,62 38.3,60.7 38.1,59 L32,59 C31.4,59 31,58.6 31,58 C31,57.4 31.4,57 32,57 L38,57 L38,54 L32,54 C31.4,54 31,53.6 31,53 C31,52.4 31.4,52 32,52 L39,52 C39.6,52 40,52.4 40,53 L40,58.5 C40,59.3 40.7,60 41.5,60 C42.3,60 43,59.3 43,58.5 L43,53 C43,52.4 43.4,52 44,52 L53,52 C52,40.9 34.7,26.4 24.4,26 L23.2,27.2 C25.4,27.8 27,29.5 27,31.5 C27,34 24.5,36 21.5,36 C18.5,36 16,34 16,31.5 C16,29.3 17.9,27.5 20.5,27.1 L23,24.6 C23.2,20.9 26.3,18 30,18 C45.8,18 64,38.6 64,52 Z M21.5,29 C19.6,29 18,30.1 18,31.5 C18,32.9 19.6,34 21.5,34 C23.4,34 25,32.9 25,31.5 C25,30.1 23.4,29 21.5,29 Z M28,52 L24,52 C23.4,52 23,52.4 23,53 L23,60.5 C23,61.3 22.3,62 21.5,62 C20.7,62 20,61.3 20,60.5 L20,53 C20,52.4 19.6,52 19,52 L17,52 C16.4,52 16,52.4 16,53 C16,53.6 16.4,54 17,54 L18,54 L18,57 L3.5,57 C2.7,57 2,56.3 2,55.5 C2,54.7 2.7,54 3.5,54 L12,54 L12,55 C12,55.6 12.4,56 13,56 C13.6,56 14,55.6 14,55 L14,53 C14,52.4 13.6,52 13,52 L4.5,52 C3.1,52 2,50.9 2,49.5 C2,48.8 2.3,48.2 2.7,47.7 L15.3,35.1 C15.7,34.7 15.7,34.1 15.3,33.7 C14.9,33.3 14.3,33.3 13.9,33.7 L1.3,46.3 C0.4,47.2 0,48.3 0,49.5 C0,50.8 0.5,51.9 1.4,52.8 C0.6,53.4 0,54.4 0,55.5 C0,57.4 1.6,59 3.5,59 L18,59 L18,60.5 C18,62.4 19.6,64 21.5,64 C23.4,64 25,62.4 25,60.5 L25,54 L27,54 L27,58 C27,58.6 27.4,59 28,59 C28.6,59 29,58.6 29,58 L29,53 C29,52.4 28.6,52 28,52 Z M30,42 C30,39.2 32.9,37 36.5,37 C40.1,37 43,39.2 43,42 C43,44.8 40.1,47 36.5,47 C32.9,47 30,44.8 30,42 Z M32,42 C32,43.6 34.1,45 36.5,45 C38.9,45 41,43.6 41,42 C41,40.4 38.9,39 36.5,39 C34.1,39 32,40.4 32,42 Z M14,42 C16.8,42 19,43.8 19,46 C19,48.2 16.8,50 14,50 C11.2,50 9,48.2 9,46 C9,43.8 11.2,42 14,42 Z M14,44 C12.4,44 11,44.9 11,46 C11,47.1 12.4,48 14,48 C15.6,48 17,47.1 17,46 C17,44.9 15.6,44 14,44 Z M22,43 C22.2,43 22.3,43 22.4,42.9 L24.4,41.9 C24.9,41.7 25.1,41.1 24.8,40.6 C24.6,40.1 24,39.9 23.5,40.2 L21.5,41.2 C21,41.4 20.8,42 21.1,42.5 C21.3,42.8 21.6,43 22,43 Z M30.4,48.1 L28.4,47.1 C27.9,46.9 27.3,47.1 27.1,47.5 C26.9,48 27.1,48.6 27.5,48.8 L29.5,49.8 C29.7,50 29.8,50 30,50 C30.4,50 30.7,49.8 30.9,49.4 C31.1,49 30.9,48.4 30.4,48.1 Z M32,34 C32.2,34 32.3,34 32.4,33.9 C32.9,33.7 33.1,33.1 32.8,32.6 L31.8,30.6 C31.6,30.1 31,29.9 30.5,30.2 C30,30.4 29.8,31 30.1,31.5 L31.1,33.5 C31.3,33.8 31.6,34 32,34 Z M32.5,10 C32.5,10.7 32.1,11.5 31.3,12.3 C30.9,12.7 30.9,13.3 31.3,13.7 C31.5,13.9 31.8,14 32,14 C32.2,14 32.5,13.9 32.7,13.7 C35.1,11.3 35.1,8.7 32.7,6.3 C31.9,5.5 31.5,4.7 31.5,4 C31.5,3.3 31.9,2.5 32.7,1.7 C33.1,1.3 33.1,0.7 32.7,0.3 C32.3,-0.1 31.7,-0.1 31.3,0.3 C28.9,2.7 28.9,5.3 31.3,7.7 C32.1,8.5 32.5,9.3 32.5,10 Z M22.5,13 C22.5,13.7 22.1,14.5 21.3,15.3 C20.9,15.7 20.9,16.3 21.3,16.7 C21.5,16.9 21.8,17 22,17 C22.2,17 22.5,16.9 22.7,16.7 C25.1,14.3 25.1,11.7 22.7,9.3 C21.9,8.5 21.5,7.7 21.5,7 C21.5,6.3 21.9,5.5 22.7,4.7 C23.1,4.3 23.1,3.7 22.7,3.3 C22.3,2.9 21.7,2.9 21.3,3.3 C18.9,5.7 18.9,8.3 21.3,10.7 C22.1,11.5 22.5,12.3 22.5,13 Z M42.5,13 C42.5,13.7 42.1,14.5 41.3,15.3 C40.9,15.7 40.9,16.3 41.3,16.7 C41.5,16.9 41.8,17 42,17 C42.2,17 42.5,16.9 42.7,16.7 C45.1,14.3 45.1,11.7 42.7,9.3 C41.9,8.5 41.5,7.7 41.5,7 C41.5,6.3 41.9,5.5 42.7,4.7 C43.1,4.3 43.1,3.7 42.7,3.3 C42.3,2.9 41.7,2.9 41.3,3.3 C38.9,5.7 38.9,8.3 41.3,10.7 C42.1,11.5 42.5,12.3 42.5,13 Z" id="Shape" stroke="none" fill="#FFFFFF" fill-rule="evenodd"></path>
</svg>