
<svg width="724px" height="227px" viewBox="19505 4428 724 227" version="1.1" xmlns="http://www.w3.org/2000/svg" xmlns:xlink="http://www.w3.org/1999/xlink">
    <!-- Generator: Sketch 41.2 (35397) - http://www.bohemiancoding.com/sketch -->
    <desc>Created with Sketch.</desc>
    <defs></defs>
    <g id="Group-2" stroke="none" stroke-width="1" fill="none" fill-rule="evenodd" transform="translate(19505.000000, 4428.000000)">
        <path d="M660.693011,215.913383 C657.733258,215.04204 655.111865,213.651805 652.828754,211.742636 C650.545642,209.833466 648.721364,207.626441 647.355864,205.121494 C645.990365,202.616546 645.123847,199.887426 644.756283,196.934051 C644.388719,193.980676 644.640605,191.024157 645.511947,188.064403 L653.705876,160.231478 C654.577219,157.271725 655.967454,154.650332 657.876623,152.36722 C659.785793,150.084109 661.992818,148.259831 664.497765,146.894331 C667.002712,145.528832 669.731833,144.662313 672.685208,144.29475 C675.638582,143.927186 678.595102,144.179071 681.554856,145.050414 L689.5803,147.41308 L703.203336,101.138708 C703.67252,99.5449947 704.703953,98.9827387 706.297667,99.4519231 L721.494785,103.925909 C723.088499,104.395093 723.650755,105.426527 723.18157,107.02024 L689.400464,221.767023 C688.931279,223.360737 687.899846,223.922993 686.306133,223.453808 L660.693011,215.913383 Z M665.741529,193.092165 C665.406397,194.230531 665.519962,195.315423 666.082227,196.346872 C666.644491,197.37832 667.494794,198.0616 668.633161,198.396732 L674.097293,200.005356 L684.201463,165.683774 L678.737331,164.07515 C677.598964,163.740018 676.514073,163.853583 675.482624,164.415847 C674.451175,164.978111 673.767895,165.828414 673.432763,166.966781 L665.741529,193.092165 Z M641.632207,87.6060356 C641.98665,85.9829441 642.975403,85.3486297 644.598494,85.7030731 L660.075753,89.082928 C661.698845,89.4373715 662.333159,90.4261241 661.978716,92.0492156 L636.458913,208.911216 C636.104469,210.534307 635.115717,211.168622 633.492625,210.814178 L618.015366,207.434323 C616.392275,207.07988 615.75796,206.091127 616.112404,204.468036 L641.632207,87.6060356 Z M576.522649,93.8028354 C574.888431,93.5038569 574.220821,92.5372732 574.5198,90.9030554 L577.210593,76.1951686 C577.509572,74.5609508 578.476156,73.8933412 580.110373,74.1923197 L626.510254,82.6811329 C627.210633,82.8092666 627.722381,83.1441604 628.045513,83.6858244 C628.368645,84.2274885 628.349415,84.8271454 627.987821,85.4848132 L585.262681,181.536083 L607.674699,185.63634 C609.308917,185.935319 609.976526,186.901903 609.677548,188.536121 L606.986754,203.244007 C606.687776,204.878225 605.721192,205.545835 604.086974,205.246856 L558.037281,196.822109 C557.336902,196.693976 556.830493,196.3299 556.518039,195.729871 C556.205584,195.129842 556.219476,194.559367 556.559714,194.018429 L599.284854,97.9671589 L576.522649,93.8028354 Z M515.000393,86.985261 C513.353202,86.7688876 512.637803,85.8371193 512.854177,84.1899282 L514.801527,69.3652822 C515.017901,67.718091 515.949669,67.0026929 517.59686,67.2190663 L564.365089,73.3624938 C565.071028,73.4552253 565.598978,73.763946 565.948955,74.2886654 C566.298931,74.8133848 566.309897,75.4132498 565.981853,76.0882784 L528.143698,174.167625 L550.733634,177.135016 C552.380825,177.351389 553.096224,178.283158 552.87985,179.930349 L550.9325,194.754995 C550.716126,196.402186 549.784358,197.117584 548.137167,196.901211 L501.721906,190.804149 C501.015967,190.711417 500.491881,190.373283 500.149632,189.789735 C499.807382,189.206187 499.792553,188.635736 500.105142,188.078364 L537.943297,89.9990179 L515.000393,86.985261 Z M450.050396,64.9252936 C449.957602,63.2496525 450.738752,62.483669 452.393872,62.6273202 L468.531206,64.0279114 C470.068102,64.1613017 470.882936,65.0658038 470.97573,66.7414449 L470.732157,86.0165746 L481.726824,86.9708236 L484.807731,67.9419517 C485.187828,66.3073538 486.14631,65.5567613 487.683207,65.6901516 L503.820541,67.0907429 C505.47566,67.234394 506.113162,68.1235051 505.733065,69.758103 L482.090237,187.771774 C481.71014,189.406372 480.692547,190.151834 479.037428,190.008183 L455.629427,187.976556 C453.974307,187.832905 453.100363,186.923273 453.007569,185.247632 L450.050396,64.9252936 Z M470.427019,106.001038 L469.625361,154.350804 L471.044028,154.473933 L478.584353,106.709029 L470.427019,106.001038 Z M373.211747,81.7675032 C371.551237,81.7149698 370.74726,80.8584605 370.799793,79.1979496 L371.300734,63.3638718 C371.353268,61.7033609 372.209777,60.8993842 373.870288,60.9519177 L412.476972,62.1733134 C414.137483,62.2258468 414.94146,63.082356 414.888926,64.7428669 L411.10654,184.29905 C411.054006,185.959561 410.197497,186.763538 408.536986,186.711004 L369.930302,185.489609 C368.269791,185.437075 367.465814,184.580566 367.518348,182.920055 L368.019289,167.085977 C368.071822,165.425467 368.928332,164.62149 370.588842,164.674023 L390.870695,165.315678 L391.681206,139.696496 L374.068019,139.139269 C372.407508,139.086736 371.603531,138.230227 371.656065,136.569716 L372.157006,120.735638 C372.209539,119.075127 373.066048,118.27115 374.726559,118.323684 L392.339747,118.88091 L393.4936,82.4091581 L373.211747,81.7675032 Z M304.252027,64.313699 C303.892122,62.6531985 304.542828,61.8210087 306.204165,61.8171047 L322.75812,61.7782038 C324.419457,61.7742997 325.37073,62.6027249 325.611968,64.2635043 L332.45877,99.491512 L339.13993,64.2317143 C339.37336,62.5698195 340.320729,61.7369326 341.982066,61.7330285 L358.536021,61.6941276 C359.248022,61.6924544 359.81224,61.9284602 360.228689,62.4021519 C360.645139,62.8758436 360.735532,63.4689602 360.499871,64.1815195 L346.044875,124.201654 L360.780962,183.797189 C361.01969,184.389966 360.932016,184.953835 360.517936,185.488812 C360.103857,186.023789 359.540825,186.29211 358.828823,186.293784 L342.274869,186.332684 C340.613532,186.336589 339.662259,185.508163 339.421021,183.847384 L332.574218,148.619376 L325.893058,183.879174 C325.659628,185.541069 324.712259,186.373956 323.050922,186.37786 L306.496968,186.416761 C305.784966,186.418434 305.220679,186.152762 304.80409,185.619737 C304.387501,185.086711 304.297178,184.523261 304.533117,183.929369 L318.98895,124.265234 L304.252027,64.313699 Z M266.911553,189.26361 C263.829031,189.395643 260.898999,188.927274 258.12137,187.858487 C255.343741,186.789701 252.904051,185.290747 250.802226,183.361581 C248.700401,181.432415 246.998322,179.129835 245.695937,176.45377 C244.393553,173.777706 243.676355,170.898455 243.544321,167.815933 L242.302704,138.828512 C242.170671,135.74599 242.63904,132.815958 243.707827,130.038329 C244.776614,127.2607 246.275567,124.82101 248.204733,122.719185 C250.133899,120.61736 252.436479,118.915281 255.112544,117.612896 C257.788609,116.310512 260.667859,115.593314 263.750381,115.46128 L272.108717,115.103268 L270.044434,66.9094572 C269.973339,65.2496374 270.767689,64.3841931 272.427509,64.3130981 L288.254997,63.63516 C289.914816,63.564065 290.780261,64.3584155 290.851356,66.0182352 L295.970169,185.524658 C296.041264,187.184478 295.246914,188.049923 293.587094,188.121018 L266.911553,189.26361 Z M264.313157,166.035526 C264.363939,167.221112 264.822052,168.211071 265.687509,169.005433 C266.552966,169.799796 267.578473,170.17158 268.764058,170.120798 L274.45484,169.877045 L272.923766,134.13182 L267.232984,134.375573 C266.047399,134.426355 265.05744,134.884468 264.263077,135.749926 C263.468715,136.615383 263.09693,137.640889 263.147713,138.826475 L264.313157,166.035526 Z M172.928961,74.8648739 C172.436446,73.2387675 172.958862,72.3617772 174.496225,72.2338766 L190.638458,70.8909271 C191.34801,70.831896 192.047665,71.0118393 192.737441,71.4307624 C193.427218,71.8496854 193.919874,72.4040763 194.215422,73.0939515 L210.780319,115.476499 L206.958078,69.5332199 L207.283043,71.292334 C207.421175,70.0900699 208.140653,69.4348359 209.441499,69.3266123 L225.228958,68.0131782 C226.88458,67.8754391 227.781247,68.6343691 227.918986,70.289991 L237.836151,189.494174 C237.97389,191.149796 237.21496,192.046463 235.559338,192.184202 L208.951262,194.397855 C205.876535,194.653656 202.930049,194.303412 200.111713,193.34711 C197.293378,192.390809 194.795421,190.991107 192.617769,189.147964 C190.440116,187.30482 188.64688,185.0725 187.238007,182.450934 C185.829135,179.829369 184.99681,176.981266 184.741009,173.906539 L182.335506,144.99243 C181.971481,140.616857 182.767797,136.59135 184.724476,132.915786 C186.681156,129.240223 189.413756,126.303918 192.92236,124.106785 L172.928961,74.8648739 Z M212.743092,139.068993 L207.066702,139.541239 C205.884115,139.639624 204.913365,140.13715 204.154424,141.03383 C203.395482,141.930511 203.065209,142.970129 203.163594,144.152716 L205.42152,171.292954 C205.519905,172.475541 206.017431,173.446291 206.914111,174.205232 C207.810792,174.964174 208.85041,175.294447 210.032997,175.196062 L215.709387,174.723816 L212.743092,139.068993 Z M123.126813,101.217985 C121.479416,101.432781 120.548333,100.716491 120.333537,99.0690939 L118.285313,83.3600601 C118.070516,81.7126625 118.786806,80.7815797 120.434204,80.5667836 L158.736005,75.572799 C160.383403,75.3580028 161.314486,76.0742928 161.529282,77.7216904 L176.994525,196.333721 C177.209321,197.981118 176.493031,198.912201 174.845633,199.126997 L136.543832,204.120982 C134.896434,204.335778 133.965351,203.619488 133.750555,201.97209 L131.702331,186.263057 C131.487535,184.615659 132.203825,183.684576 133.851222,183.46978 L153.972906,180.846212 L150.658926,155.429348 L133.184832,157.70771 C131.537434,157.922506 130.606351,157.206216 130.391555,155.558819 L128.343331,139.849785 C128.128535,138.202387 128.844825,137.271305 130.492223,137.056508 L147.966316,134.778147 L143.248497,98.5944173 L123.126813,101.217985 Z M100.728887,212.753553 C97.6905356,213.290019 94.7243513,213.211239 91.8302454,212.517209 C88.9361395,211.823179 86.3204352,210.658257 83.983054,209.022409 C81.6456728,207.386562 79.6554303,205.327949 78.0122669,202.84651 C76.3691034,200.36507 75.2793047,197.605216 74.742838,194.566865 L73.5667439,187.905897 C73.2778772,186.269861 73.8517565,185.084025 75.2883989,184.348353 L90.4968688,177.32499 C91.9335112,176.589318 92.7962529,177.039493 93.0851195,178.675528 L95.0968596,190.06929 C95.3031929,191.237886 95.8875764,192.158963 96.8500274,192.832548 C97.8124785,193.506132 98.8779865,193.739754 100.046583,193.533421 L101.448892,193.285822 C102.617489,193.079489 103.538566,192.495105 104.21215,191.532654 C104.885735,190.570203 105.119357,189.504695 104.913023,188.336098 L102.096587,172.384832 C101.752761,171.120009 101.323031,170.051125 100.807386,169.178147 C100.29174,168.30517 99.4839572,167.483788 98.3840131,166.713977 L72.3881164,153.590121 C70.2294949,152.284219 68.7376806,150.830482 67.9126287,149.228866 C67.0875768,147.627251 66.3725019,145.795367 65.7673826,143.73316 L60.444009,113.583514 C59.9075423,110.545162 59.9863228,107.578978 60.6803529,104.684872 C61.374383,101.790766 62.5393044,99.1750616 64.1751523,96.8376804 C65.8110001,94.5002992 67.8696128,92.5100567 70.351052,90.8668933 C72.8324912,89.2237298 75.5923452,88.1339311 78.6306968,87.5974644 L85.2916651,86.4213703 C88.3300167,85.8849036 91.296201,85.9636841 94.1903069,86.6577142 C97.0844128,87.3517443 99.7001171,88.5166657 102.037498,90.1525136 C104.37488,91.7883614 106.365122,93.846974 108.008285,96.3284133 C109.651449,98.8098525 110.741248,101.569707 111.277714,104.608058 L114.2489,121.435767 C114.537766,123.071803 113.963887,124.257639 112.527244,124.993311 L97.3187747,132.016674 C95.8821322,132.752346 95.0193906,132.302171 94.7305239,130.666136 L90.9236928,109.105633 C90.7173594,107.937037 90.132976,107.01596 89.1705249,106.342375 C88.2080738,105.668791 87.1425659,105.435169 85.9739691,105.641502 L84.57166,105.889101 C83.4030632,106.095434 82.4819865,106.679818 81.8084021,107.642269 C81.1348177,108.60472 80.9011956,109.670228 81.107529,110.838825 L85.1929087,133.976925 C85.5780017,135.475468 86.0489974,136.778068 86.6059097,137.884764 C87.1628221,138.991461 88.0496669,139.919384 89.2664706,140.668562 L114.94274,154.029607 C116.984502,155.356142 118.529587,156.770348 119.578041,158.272267 C120.626496,159.774186 121.387995,161.869 121.862562,164.556773 L125.576543,185.591409 C126.11301,188.629761 126.03423,191.595945 125.340199,194.490051 C124.646169,197.384157 123.481248,199.999861 121.8454,202.337243 C120.209552,204.674624 118.15094,206.664866 115.6695,208.30803 C113.188061,209.951193 110.428207,211.040992 107.389855,211.577459 L100.728887,212.753553 Z M47.3855073,225.809237 C44.3839908,226.523573 41.4183109,226.61948 38.4883787,226.096963 C35.5584465,225.574446 32.8787227,224.565471 30.449127,223.070006 C28.0195313,221.574542 25.9115942,219.636617 24.1252524,217.256174 C22.3389106,214.875731 21.0885906,212.184791 20.3742548,209.183275 L18.808219,202.60306 C18.4235766,200.986859 18.9266782,199.769307 20.3175386,198.950367 L35.0863463,191.044198 C36.4772067,190.225258 37.3649448,190.623883 37.7495871,192.240084 L40.4283327,203.495715 C40.7030772,204.650145 41.3406508,205.535236 42.3410726,206.151015 C43.3414943,206.766795 44.4189038,206.93731 45.5733332,206.662565 L46.9586416,206.332873 C48.113071,206.058129 48.9981622,205.420555 49.6139416,204.420133 C50.2297211,203.419712 50.400236,202.342302 50.1254915,201.187873 L46.3752476,185.42999 C45.9575857,184.187592 45.4656999,183.145848 44.8995755,182.304728 C44.3334511,181.463608 43.4787321,180.691186 42.3353929,179.987438 L15.6122439,168.416113 C13.3805145,167.239503 11.805737,165.876074 10.8878642,164.325787 C9.96999143,162.775499 9.14835436,160.98887 8.42292836,158.965846 L1.33455541,129.181715 C0.620219678,126.180199 0.52431178,123.214519 1.04682884,120.284587 C1.56934589,117.354655 2.57832147,114.674931 4.07378583,112.245335 C5.5692502,109.815739 7.5071749,107.707802 9.88761808,105.92146 C12.2680613,104.135119 14.9590008,102.884799 17.9605173,102.170463 L24.5407321,100.604427 C27.5422487,99.8900912 30.5079285,99.7941833 33.4378607,100.3167 C36.3677929,100.839217 39.0475167,101.848193 41.4771124,103.343657 C43.9067081,104.839122 46.0146452,106.777046 47.8009871,109.15749 C49.5873289,111.537933 50.8376489,114.228872 51.5519846,117.230389 L55.5082858,133.85409 C55.8929281,135.470291 55.3898266,136.687843 53.9989661,137.506783 L39.2301585,145.412952 C37.839298,146.231891 36.9515599,145.833266 36.5669176,144.217065 L31.4979067,122.917949 C31.2231622,121.763519 30.5855886,120.878428 29.5851669,120.262649 C28.5847451,119.646869 27.5073357,119.476354 26.3529063,119.751099 L24.9675979,120.080791 C23.8131684,120.355535 22.9280773,120.993109 22.3122978,121.99353 C21.6965184,122.993952 21.5260035,124.071362 21.800748,125.225791 L27.2406621,148.083379 C27.7132729,149.556663 28.2601068,150.829289 28.8811801,151.901295 C29.5022535,152.973301 30.4421671,153.847428 31.7009492,154.523701 L58.1189826,166.350613 C60.2352691,167.554698 61.8608986,168.875529 62.9959201,170.313146 C64.1309415,171.750763 65.0143952,173.797135 65.6463076,176.452323 L70.591684,197.231948 C71.3060198,200.233465 71.4019277,203.199145 70.8794106,206.129077 C70.3568936,209.059009 69.347918,211.738733 67.8524536,214.168329 C66.3569892,216.597924 64.4190645,218.705862 62.0386214,220.492203 C59.6581782,222.278545 56.9672387,223.528865 53.9657222,224.243201 L47.3855073,225.809237 Z" id="PIZZA-EXPRESS" fill="#FFFFFF" transform="translate(362.028677, 143.688788) rotate(-180.000000) translate(-362.028677, -143.688788) "></path>
        <g id="Group" transform="translate(227.000000, 0.000000)" fill="#FFFFFF">
            <path d="M5.982,46.752 L5.982,28.179 L10.533,28.179 C15.289,28.179 19.225,31.172 19.225,37.486 C19.225,43.8 15.248,46.752 10.492,46.752 L5.982,46.752 Z M10.697,52 C18.979,52 25.088,46.67 25.088,37.486 C25.088,28.302 19.02,22.931 10.738,22.931 L0.324,22.931 L0.324,52 L10.697,52 Z M38.782,47.654 C36.117,47.654 33.657,45.686 33.657,41.914 C33.657,38.101 36.117,36.174 38.782,36.174 C41.447,36.174 43.907,38.101 43.907,41.914 C43.907,45.727 41.447,47.654 38.782,47.654 Z M38.782,31.213 C32.755,31.213 28.204,35.682 28.204,41.914 C28.204,48.105 32.755,52.615 38.782,52.615 C44.809,52.615 49.36,48.105 49.36,41.914 C49.36,35.682 44.809,31.213 38.782,31.213 Z M62.726,36.256 C65.432,36.256 66.703,37.978 67.195,39.659 L72.074,38.019 C71.213,34.616 68.097,31.213 62.603,31.213 C56.74,31.213 52.148,35.682 52.148,41.914 C52.148,48.105 56.822,52.615 62.767,52.615 C68.138,52.615 71.295,49.171 72.197,45.809 L67.4,44.21 C66.949,45.768 65.555,47.613 62.767,47.613 C59.979,47.613 57.601,45.563 57.601,41.914 C57.601,38.265 59.938,36.256 62.726,36.256 Z M159.691,52 L159.691,22.931 L151.983,22.931 L143.455,43.923 L134.722,22.931 L127.26,22.931 L127.26,52 L132.672,52 L132.672,31.787 L141.036,52 L145.751,52 L154.115,31.623 L154.115,52 L159.691,52 Z M164.611,46.506 C164.611,49.663 167.235,52.574 171.54,52.574 C174.533,52.574 176.46,51.18 177.485,49.581 C177.485,50.36 177.567,51.467 177.69,52 L182.692,52 C182.569,51.303 182.446,49.868 182.446,48.802 L182.446,38.88 C182.446,34.821 180.068,31.213 173.672,31.213 C168.26,31.213 165.349,34.698 165.021,37.855 L169.859,38.88 C170.023,37.117 171.335,35.6 173.713,35.6 C176.009,35.6 177.116,36.789 177.116,38.224 C177.116,38.921 176.747,39.495 175.599,39.659 L170.638,40.397 C167.276,40.889 164.611,42.898 164.611,46.506 Z M172.688,48.515 C170.925,48.515 170.064,47.367 170.064,46.178 C170.064,44.62 171.171,43.841 172.565,43.636 L177.116,42.939 L177.116,43.841 C177.116,47.408 174.984,48.515 172.688,48.515 Z M200.24,31.746 C199.83,31.705 199.42,31.664 198.969,31.664 C197.247,31.664 194.459,32.156 193.229,34.821 L193.229,31.828 L187.94,31.828 L187.94,52 L193.393,52 L193.393,42.775 C193.393,38.429 195.812,37.076 198.6,37.076 C199.092,37.076 199.625,37.117 200.24,37.24 L200.24,31.746 Z M211.597,25.801 L206.677,25.801 L206.677,28.63 C206.677,30.434 205.693,31.828 203.561,31.828 L202.536,31.828 L202.536,36.666 L206.185,36.666 L206.185,46.055 C206.185,49.95 208.645,52.287 212.581,52.287 C214.18,52.287 215.164,52 215.656,51.795 L215.656,47.285 C215.369,47.367 214.631,47.449 213.975,47.449 C212.417,47.449 211.597,46.875 211.597,45.112 L211.597,36.666 L215.656,36.666 L215.656,31.828 L211.597,31.828 L211.597,25.801 Z M227.71,59.954 L240.379,31.828 L234.557,31.828 L229.596,43.636 L224.225,31.828 L218.116,31.828 L226.685,49.458 L221.929,59.954 L227.71,59.954 Z M242.593,28.056 C242.593,28.425 242.716,28.917 242.757,29.122 L244.684,36.625 L246.611,36.625 L248.538,29.122 C248.62,28.876 248.702,28.384 248.702,28.056 C248.702,26.252 247.431,24.94 245.668,24.94 C243.905,24.94 242.593,26.252 242.593,28.056 Z M251.285,46.383 C251.531,48.679 253.622,52.615 259.69,52.615 C264.979,52.615 267.521,49.253 267.521,45.973 C267.521,43.021 265.512,40.602 261.535,39.782 L258.665,39.167 C257.558,38.962 256.82,38.347 256.82,37.363 C256.82,36.215 257.968,35.354 259.403,35.354 C261.699,35.354 262.56,36.871 262.724,38.06 L267.275,37.035 C267.029,34.862 265.102,31.213 259.362,31.213 C255.016,31.213 251.818,34.206 251.818,37.814 C251.818,40.643 253.581,42.98 257.476,43.841 L260.141,44.456 C261.699,44.784 262.314,45.522 262.314,46.424 C262.314,47.49 261.453,48.433 259.649,48.433 C257.271,48.433 256.082,46.957 255.959,45.358 L251.285,46.383 Z" id="Doc-Marty's"></path>
            <path d="M107.202,71 C113.376,71 117.786,64.532 117.786,59.436 C113.18,60.514 107.79,59.24 103.282,55.81 C107.202,51.302 110.632,46.696 112.592,43.56 C116.806,43.266 120.824,43.266 124.744,43.658 C125.136,41.208 125.234,37.19 122.588,36.406 C120.334,35.622 118.766,35.328 114.552,35.328 C108.672,35.328 104.262,35.916 100.44,38.366 C98.088,39.738 97.99,43.854 99.068,45.226 C101.518,44.834 103.772,44.54 106.026,44.246 C103.576,46.598 101.126,48.95 98.48,51.008 C95.54,47.186 93.482,42.188 93.09,36.21 C106.516,30.82 115.826,19.942 115.826,11.612 C115.826,6.614 113.768,4.066 110.142,3.478 C109.064,1.616 106.516,0.44 104.458,0.44 C92.698,0.44 83.486,18.766 82.8,31.702 C82.702,33.662 82.8,35.622 82.898,37.484 C77.606,40.522 70.746,47.284 70.746,54.34 C70.746,58.75 72.902,61.2 75.352,62.474 C76.332,67.08 79.37,70.902 83.29,70.902 C86.23,70.902 90.346,68.354 94.56,64.63 C98.774,68.746 103.38,71 107.202,71 Z M93.188,30.526 C94.462,19.158 101.714,8.77 107.79,5.928 C106.516,15.238 100.538,23.372 93.188,30.526 Z M79.566,60.416 C79.468,55.908 81.232,49.734 83.976,44.736 C85.152,49.636 86.916,53.948 89.072,57.476 C85.74,59.24 82.506,60.318 79.566,60.416 Z" id="&amp;" opacity="0.412477355"></path>
        </g>
    </g>
</svg>